<?xml version="1.0" encoding="UTF-8"?>
<svg xmlns="http://www.w3.org/2000/svg" width="37" height="37" viewBox="0 0 37 37" fill="none">
  <g clip-path="url(#clip0_732_2557)">
    <path fill-rule="evenodd" clip-rule="evenodd" d="M33.8585 32.4211L33.8584 25.792C33.8584 25.2736 33.4395 24.8547 32.9211 24.8547C32.4027 24.8547 31.9837 25.2736 31.9837 25.792L31.9838 30.1579L24.3033 22.4775C23.9367 22.1109 23.3434 22.1116 22.9775 22.4775C22.6116 22.8434 22.611 23.4367 22.9775 23.8033L30.658 31.4837L26.2921 31.4837C25.7737 31.4837 25.3548 31.9027 25.3548 32.4211C25.3548 32.6796 25.4595 32.9143 25.6292 33.084C25.7989 33.2537 26.0336 33.3584 26.2921 33.3584L32.9211 33.3584C33.4395 33.3584 33.8585 32.9395 33.8585 32.4211Z" fill="white"></path>
    <path fill-rule="evenodd" clip-rule="evenodd" d="M3.70305 4.64045L3.7031 11.2695C3.7031 11.7879 4.12206 12.2069 4.64045 12.2069C5.15884 12.2069 5.57779 11.7879 5.57778 11.2695L5.57775 6.90361L13.2582 14.584C13.6248 14.9506 14.2181 14.95 14.584 14.584C14.9499 14.2181 14.9506 13.6248 14.584 13.2582L6.90355 5.5778L11.2694 5.5778C11.7878 5.5778 12.2068 5.15884 12.2068 4.64045C12.2068 4.38191 12.102 4.14724 11.9323 3.97754C11.7626 3.80784 11.5279 3.7031 11.2694 3.7031L4.64039 3.7031C4.122 3.7031 3.70304 4.12206 3.70305 4.64045Z" fill="white"></path>
    <path fill-rule="evenodd" clip-rule="evenodd" d="M4.64031 33.3583L11.2694 33.3583C11.7878 33.3583 12.2067 32.9393 12.2067 32.4209C12.2067 31.9026 11.7878 31.4836 11.2694 31.4836L6.90347 31.4836L14.5839 23.8032C14.9505 23.4366 14.9498 22.8433 14.5839 22.4774C14.218 22.1115 13.6247 22.1108 13.2581 22.4774L5.57766 30.1579L5.57765 25.792C5.57765 25.2736 5.15869 24.8546 4.6403 24.8547C4.38177 24.8547 4.1471 24.9594 3.97739 25.1291C3.80769 25.2988 3.70295 25.5335 3.70295 25.792L3.70296 32.421C3.70296 32.9394 4.12191 33.3583 4.64031 33.3583Z" fill="white"></path>
    <path fill-rule="evenodd" clip-rule="evenodd" d="M32.9212 3.7033L26.2921 3.70335C25.7737 3.70336 25.3548 4.12231 25.3548 4.6407C25.3548 5.15909 25.7738 5.57804 26.2921 5.57804L30.6581 5.578L22.9776 13.2584C22.611 13.625 22.6117 14.2183 22.9776 14.5842C23.3435 14.9501 23.9368 14.9508 24.3034 14.5842L31.9839 6.9038L31.9839 11.2697C31.9839 11.788 32.4028 12.207 32.9212 12.207C33.1798 12.207 33.4144 12.1023 33.5841 11.9326C33.7538 11.7628 33.8586 11.5282 33.8586 11.2696L33.8586 4.64064C33.8586 4.12225 33.4396 3.7033 32.9212 3.7033Z" fill="white"></path>
  </g>
  <defs>
    <clipPath id="clip0_732_2557">
      <rect width="37" height="37" fill="white"></rect>
    </clipPath>
  </defs>
</svg>
